<svg xmlns="http://www.w3.org/2000/svg" version="1.1" xmlns:xlink="http://www.w3.org/1999/xlink" xmlns:svgjs="http://svgjs.dev/svgjs" width="1000" height="623" viewBox="0 0 1000 623"><g transform="matrix(1,0,0,1,-0.6060445410984698,0.2522267206477409)"><svg viewBox="0 0 396 247" data-background-color="#ffffff" preserveAspectRatio="xMidYMid meet" height="623" width="1000" xmlns="http://www.w3.org/2000/svg" xmlns:xlink="http://www.w3.org/1999/xlink"><g id="tight-bounds" transform="matrix(1,0,0,1,0.23999396961482944,-0.09999999999999432)"><svg viewBox="0 0 395.52 247.2" height="247.2" width="395.52"><g><svg></svg></g><g><svg viewBox="0 0 395.52 247.2" height="247.2" width="395.52"><g><g><path xmlns="http://www.w3.org/2000/svg" d="M318.906 247.2h-29.103l-27.35-63.466h-129.035l-27.35 63.466h-29.454l29.386-66.828 183.52 0zM185.312 0h24.896l29.385 66.828h-27.267l-14.391-33.517-14.391 33.517-27.617 0z" fill="#ff0000" fill-rule="nonzero" stroke="none" stroke-width="1" stroke-linecap="butt" stroke-linejoin="miter" stroke-miterlimit="10" stroke-dasharray="" stroke-dashoffset="0" font-family="none" font-weight="none" font-size="none" text-anchor="none" style="mix-blend-mode: normal" data-fill-palette-color="tertiary"></path></g></g><g transform="matrix(1,0,0,1,0,79.65333333333334)"><svg viewBox="0 0 395.52 87.89333333333333" height="87.89333333333333" width="395.52"><g><svg viewBox="0 0 395.52 87.89333333333333" height="87.89333333333333" width="395.52"><g><svg viewBox="0 0 395.52 87.89333333333333" height="87.89333333333333" width="395.52"><g><svg viewBox="0 0 395.52 87.89333333333333" height="87.89333333333333" width="395.52"><g id="textblocktransform"><svg viewBox="0 0 395.52 87.89333333333333" height="87.89333333333333" width="395.52" id="textblock"><g><svg viewBox="0 0 395.52 87.89333333333333" height="87.89333333333333" width="395.52"><g transform="matrix(1,0,0,1,0,0)"><svg width="395.52" viewBox="2.9000000953674316 -24.950000762939453 113.83999633789062 25.30000114440918" height="87.89333333333333" data-palette-color="#ff0000"><path d="M13.65-24.95Q18.3-24.95 20.58-22.58 22.85-20.2 22.85-15.35L22.85-15.35 22.85 0 18.9 0 18.9-4.15Q17.95-2 16-0.83 14.05 0.35 11.5 0.35L11.5 0.35Q9.15 0.35 7.18-0.6 5.2-1.55 4.05-3.25 2.9-4.95 2.9-7L2.9-7Q2.9-9.75 4.3-11.28 5.7-12.8 8.9-13.48 12.1-14.15 17.8-14.15L17.8-14.15 18.9-14.15 18.9-15.8Q18.9-18.85 17.65-20.23 16.4-21.6 13.6-21.6L13.6-21.6Q9.4-21.6 5.25-19L5.25-19 3.9-21.95Q5.8-23.3 8.47-24.13 11.15-24.95 13.65-24.95L13.65-24.95ZM12.05-2.85Q15.05-2.85 16.98-4.88 18.9-6.9 18.9-10.1L18.9-10.1 18.9-11.55 18-11.55Q13.6-11.55 11.3-11.18 9-10.8 8.03-9.93 7.05-9.05 7.05-7.35L7.05-7.35Q7.05-5.4 8.47-4.13 9.9-2.85 12.05-2.85L12.05-2.85ZM39.45-4.4L47.7-24.3 51.75-24.3 41.25 0 37.45 0 27-24.3 31.3-24.3 39.45-4.4ZM76.8-24.35L67.25-12.55 77.35 0 72.45 0 64.85-9.5 57.3 0 52.35 0 62.45-12.55 52.95-24.35 57.85-24.35 64.85-15.5 71.85-24.35 76.8-24.35ZM108.64-24.95Q116.74-24.95 116.74-15.3L116.74-15.3 116.74 0 112.69 0 112.69-15.1Q112.69-18.45 111.52-20 110.34-21.55 107.74-21.55L107.74-21.55Q104.69-21.55 102.94-19.5 101.19-17.45 101.19-13.9L101.19-13.9 101.19 0 97.14 0 97.14-15.1Q97.14-18.5 95.94-20.03 94.74-21.55 92.14-21.55L92.14-21.55Q89.09-21.55 87.34-19.5 85.59-17.45 85.59-13.9L85.59-13.9 85.59 0 81.54 0 81.54-24.35 85.54-24.35 85.54-20.5Q86.64-22.65 88.59-23.8 90.54-24.95 93.09-24.95L93.09-24.95Q98.74-24.95 100.54-20.15L100.54-20.15Q101.59-22.4 103.74-23.68 105.89-24.95 108.64-24.95L108.64-24.95Z" opacity="1" transform="matrix(1,0,0,1,0,0)" fill="#ff0000" class="undefined-text-0" data-fill-palette-color="primary" id="text-0"></path></svg></g></svg></g></svg></g></svg></g><g></g></svg></g></svg></g></svg></g></svg></g><defs></defs></svg><rect width="395.52" height="247.2" fill="none" stroke="none" visibility="hidden"></rect></g></svg></g></svg>